{"asset":{"generator":"glTF-Transform v2.0.5","version":"2.0"},"accessors":[{"type":"SCALAR","componentType":5123,"count":45702,"bufferView":0,"byteOffset":0},{"type":"VEC3","componentType":5126,"count":13497,"max":[244.3250274658203,469.482666015625,83.19364166259766],"min":[-237.91261291503906,-0.6836835145950317,-88.86404418945312],"bufferView":1,"byteOffset":0},{"type":"VEC3","componentType":5126,"count":13497,"bufferView":1,"byteOffset":12},{"type":"VEC2","componentType":5126,"count":13497,"bufferView":1,"byteOffset":24}],"bufferViews":[{"buffer":0,"byteOffset":0,"byteLength":91404,"target":34963},{"buffer":0,"byteOffset":91404,"byteLength":431904,"byteStride":32,"target":34962}],"samplers":[{"magFilter":9729,"minFilter":9729,"wrapS":10497,"wrapT":10497}],"textures":[{"source":0,"sampler":0}],"images":[{"mimeType":"image/jpeg","uri":"model.jpg"}],"buffers":[{"uri":"model.bin","byteLength":523308}],"materials":[{"name":"Mat","pbrMetallicRoughness":{"roughnessFactor":0.5,"metallicFactor":0,"baseColorTexture":{"index":0}}}],"meshes":[{"name":"SUIT-lowpoly.005","primitives":[{"attributes":{"POSITION":1,"NORMAL":2,"TEXCOORD_0":3},"mode":4,"material":0,"indices":0}]}],"nodes":[{"name":"V03","children":[1]},{"name":"SUIT-lowpoly.005","children":[2]},{"name":"SUIT-lowpoly.005","mesh":0}],"scenes":[{"nodes":[0]}]}